<svg width="115" height="60" viewBox="0 0 115 60" fill="none" xmlns="http://www.w3.org/2000/svg">
<g clip-path="url(#clip0_458_13762)">
<path d="M70.1006 31.5687C70.8845 31.7621 71.7365 31.8595 72.6564 31.8595C73.5764 31.8595 74.4377 31.7621 75.1883 31.5687C75.9403 31.3753 76.5776 31.0965 77.1029 30.7323C77.6282 30.3681 78.0269 29.9159 78.3028 29.3742C78.5775 28.8326 78.7148 28.215 78.7148 27.5199C78.7148 26.5021 78.4602 25.7057 77.9509 25.132C77.4415 24.5584 76.7189 24.1062 75.7816 23.774C74.8443 23.4432 73.7377 23.1483 72.4618 22.8895C71.1858 22.6307 70.1472 22.3599 69.3473 22.0771C68.5473 21.7943 67.962 21.4141 67.59 20.9379C67.218 20.4616 67.0327 19.8106 67.0327 18.9862C67.0327 17.7415 67.4727 16.7437 68.354 15.9913C69.2339 15.2402 70.6525 14.864 72.6071 14.864C73.1244 14.864 73.5964 14.8961 74.0244 14.9614C74.4524 15.0268 74.8563 15.1309 75.2363 15.2763C75.615 15.4217 75.9789 15.6204 76.3269 15.8699C76.6736 16.1207 77.0176 16.4315 77.3576 16.8037L77.6722 16.4649C77.2202 15.9633 76.7389 15.5644 76.2309 15.2643C75.7216 14.9654 75.1643 14.7467 74.559 14.6092C73.9537 14.4718 73.2871 14.4038 72.5604 14.4038C71.3485 14.4038 70.2899 14.5826 69.3859 14.9374C68.4806 15.2936 67.782 15.8139 67.29 16.5009C66.7967 17.1879 66.5514 18.0324 66.5514 19.0342C66.5514 20.0361 66.782 20.7351 67.242 21.2767C67.702 21.8183 68.3766 22.2385 69.2659 22.5374C70.1539 22.8362 71.2285 23.107 72.4884 23.3498C73.8124 23.6086 74.899 23.9034 75.7483 24.2342C76.5963 24.5664 77.2229 24.9946 77.6269 25.5189C78.0309 26.0445 78.2322 26.7355 78.2322 27.592C78.2322 28.8686 77.7349 29.8305 76.7416 30.4775C75.7483 31.1245 74.395 31.4473 72.6818 31.4473C72.0351 31.4473 71.4218 31.3993 70.8405 31.3019C70.2592 31.2045 69.7059 31.0511 69.1806 30.8417C68.6553 30.6322 68.158 30.3654 67.69 30.0413C67.2207 29.7184 66.7687 29.3302 66.3327 28.878L65.9688 29.1928C66.5821 29.7905 67.2287 30.2881 67.9073 30.6843C68.586 31.0805 69.3166 31.3753 70.1006 31.5687Z" fill="#F2F2F3"/>
<path d="M72.6579 31.9663C71.7326 31.9663 70.8633 31.8676 70.0753 31.6715C69.286 31.4767 68.5381 31.1752 67.8541 30.775C67.1715 30.3775 66.5128 29.8692 65.8942 29.2676L65.8115 29.1862L66.3395 28.7286L66.4102 28.802C66.8408 29.2489 67.2915 29.6357 67.7501 29.9519C68.2101 30.2694 68.7047 30.5349 69.2194 30.7403C69.734 30.9471 70.286 31.0992 70.8566 31.1952C71.4299 31.2913 72.0432 31.3393 72.6805 31.3393C74.3631 31.3393 75.7097 31.0191 76.6817 30.3868C77.639 29.7638 78.1243 28.8233 78.1243 27.592C78.1243 26.7636 77.9283 26.0886 77.5403 25.5843C77.1497 25.0774 76.5337 24.6558 75.7084 24.333C74.8684 24.0048 73.7778 23.71 72.4672 23.4539C71.2046 23.2111 70.1153 22.9363 69.23 22.6388C68.3274 22.3346 67.6301 21.8997 67.1595 21.3461C66.6835 20.7872 66.4435 20.0094 66.4435 19.0342C66.4435 18.0591 66.6995 17.1399 67.2021 16.4382C67.7048 15.7379 68.4261 15.1989 69.346 14.8374C70.2607 14.4785 71.3419 14.2971 72.5605 14.2971C73.2912 14.2971 73.9712 14.3678 74.5831 14.5052C75.1978 14.6453 75.7711 14.8694 76.2857 15.1722C76.8003 15.4751 77.2937 15.8859 77.7523 16.3929L77.8176 16.4662L77.3577 16.9625L77.279 16.8771C76.9457 16.5116 76.6044 16.2034 76.2657 15.958C75.9271 15.7139 75.5684 15.5178 75.2004 15.3763C74.8298 15.2349 74.4298 15.1309 74.0111 15.0669C73.5898 15.0042 73.1179 14.9721 72.6099 14.9721C70.69 14.9721 69.282 15.343 68.4261 16.074C67.5754 16.7998 67.1435 17.7803 67.1435 18.9862C67.1435 19.7826 67.3235 20.4176 67.6781 20.8725C68.0354 21.3301 68.6101 21.7023 69.386 21.9771C70.1807 22.2572 71.2246 22.5294 72.4859 22.7855C73.7592 23.0443 74.8818 23.3431 75.8204 23.6753C76.7697 24.0102 77.515 24.4784 78.0336 25.0627C78.5589 25.6537 78.8243 26.4821 78.8243 27.5226C78.8243 28.231 78.6816 28.8713 78.4003 29.4263C78.119 29.9813 77.7043 30.4508 77.167 30.823C76.6337 31.1926 75.9777 31.4794 75.2178 31.6755C74.4605 31.8702 73.6005 31.9703 72.6592 31.9703L72.6579 31.9663ZM66.1275 29.1955C66.7088 29.7505 67.3248 30.2187 67.9621 30.5896C68.6287 30.9791 69.3567 31.2726 70.1273 31.462C70.898 31.6528 71.7499 31.7502 72.6579 31.7502C73.5658 31.7502 74.4245 31.6541 75.1631 31.462C75.8977 31.2726 76.5297 30.9965 77.043 30.6416C77.551 30.2894 77.943 29.8465 78.2083 29.3236C78.4736 28.7993 78.6083 28.1923 78.6083 27.5173C78.6083 26.5315 78.3603 25.7511 77.871 25.2001C77.3763 24.6425 76.6617 24.1956 75.7471 23.8714C74.8178 23.5433 73.7045 23.2471 72.4406 22.991C71.1686 22.7335 70.1167 22.4587 69.3127 22.1745C68.4967 21.8864 67.8901 21.4915 67.5074 20.9993C67.1235 20.5057 66.9275 19.8267 66.9275 18.9822C66.9275 17.7096 67.3848 16.6757 68.2861 15.906C69.182 15.1402 70.6366 14.7534 72.6085 14.7534C73.1285 14.7534 73.6112 14.7867 74.0418 14.8507C74.4765 14.9161 74.8924 15.0242 75.2764 15.1722C75.6617 15.3203 76.0364 15.5244 76.391 15.7792C76.715 16.0127 77.0403 16.3035 77.359 16.6423L77.5283 16.4596C77.103 16.002 76.6497 15.6298 76.1777 15.3523C75.6817 15.0602 75.1298 14.8441 74.5365 14.7093C73.9405 14.5746 73.2752 14.5052 72.5619 14.5052C71.3699 14.5052 70.3153 14.6827 69.426 15.0308C68.5447 15.3777 67.8554 15.8913 67.3781 16.5583C66.9008 17.224 66.6595 18.0551 66.6595 19.0302C66.6595 19.9534 66.8835 20.6844 67.3248 21.2034C67.7701 21.7276 68.4354 22.1412 69.3007 22.432C70.1753 22.7268 71.2553 23.0003 72.5099 23.2404C73.8338 23.4979 74.9364 23.798 75.7884 24.1302C76.651 24.4677 77.2977 24.912 77.7123 25.4496C78.1296 25.9925 78.3403 26.7116 78.3403 27.588C78.3403 28.898 77.8216 29.8985 76.8017 30.5629C75.7951 31.2179 74.4098 31.5501 72.6832 31.5501C72.0339 31.5501 71.4086 31.5007 70.8233 31.4033C70.2367 31.3046 69.67 31.1485 69.1407 30.9364C68.6101 30.7243 68.1021 30.4508 67.6288 30.1253C67.1835 29.8185 66.7448 29.4463 66.3262 29.0208L66.1275 29.1928V29.1955Z" fill="#F2F2F3"/>
<path d="M85.7187 31.2047C85.3307 31.3981 84.8547 31.4955 84.2894 31.4955C83.8694 31.4955 83.4894 31.3688 83.1508 31.1153C82.8121 30.8618 82.6255 30.499 82.5935 30.0254V19.6387H85.6227V19.1531H82.5935V14.7642H82.1095V19.1531H80.2922V19.6387H82.1095V30.0214C82.1095 30.4136 82.2095 30.7565 82.4121 31.0499C82.6135 31.3434 82.8801 31.5729 83.2121 31.7356C83.5428 31.8984 83.9027 31.9798 84.2907 31.9798C84.7427 31.9798 85.1387 31.9224 85.4787 31.8103C85.8187 31.6969 86.1893 31.5195 86.5933 31.2767L86.3266 30.8885C86.3106 30.9045 86.108 31.0099 85.7213 31.2034L85.7187 31.2047Z" fill="#F2F2F3"/>
<path d="M84.2894 32.0877C83.888 32.0877 83.5094 32.001 83.1641 31.8316C82.8174 31.6595 82.5348 31.418 82.3241 31.1099C82.1108 30.7991 82.0028 30.4335 82.0028 30.02V19.744H80.1855V19.045H82.0028V14.656H82.7014V19.045H85.7306V19.744H82.7014V30.024C82.7321 30.4615 82.9001 30.7924 83.2161 31.0285C83.5347 31.266 83.8974 31.3874 84.2907 31.3874C84.8373 31.3874 85.3026 31.2926 85.672 31.1072C86.1559 30.8658 86.2439 30.8151 86.2599 30.8044L86.3506 30.7137L86.4146 30.8284L86.7452 31.31L86.6479 31.3687C86.2386 31.6141 85.8573 31.7969 85.512 31.9116C85.1627 32.0277 84.752 32.0864 84.2907 32.0864L84.2894 32.0877ZM80.3975 19.5319H82.2148V30.0213C82.2148 30.3895 82.3108 30.715 82.4988 30.9898C82.6881 31.266 82.9441 31.4847 83.2574 31.6395C83.5734 31.7942 83.92 31.8729 84.288 31.8729C84.7267 31.8729 85.1147 31.8182 85.4413 31.7089C85.744 31.6075 86.0786 31.4514 86.4373 31.2433L86.2919 31.0325C86.2079 31.0779 86.0546 31.1566 85.7666 31.3006C85.3653 31.5021 84.868 31.6035 84.288 31.6035C83.8467 31.6035 83.4427 31.4687 83.0854 31.2019C82.7214 30.9298 82.5188 30.5376 82.4854 30.0333V19.5319H85.5146V19.2611H82.4854V14.8721H82.2148V19.2611H80.3975V19.5319Z" fill="#F2F2F3"/>
<path d="M89.9592 31.4715C90.5725 31.8104 91.2591 31.9811 92.0191 31.9811C93.1177 31.9811 94.135 31.7703 95.0723 31.3501C96.0096 30.9299 96.7682 30.3483 97.3508 29.6039V30.7672C97.3508 30.9779 97.3988 31.1674 97.4962 31.3368C97.5935 31.5062 97.7215 31.6236 97.8841 31.689C97.9161 31.705 97.9561 31.717 98.0055 31.725C98.0535 31.733 98.1268 31.737 98.2241 31.737V31.2514C98.1108 31.2514 98.0188 31.2114 97.9455 31.13C97.8721 31.0486 97.8361 30.9286 97.8361 30.7658V23.8075C97.8361 22.3201 97.4202 21.1408 96.5882 20.267C95.7562 19.3946 94.6376 18.957 93.2324 18.957C92.5857 18.957 91.8991 19.0944 91.1724 19.3692C90.4458 19.6441 89.6778 20.0563 88.8699 20.6059L89.1605 20.9941C89.8712 20.4938 90.5778 20.1096 91.2804 19.8428C91.9831 19.576 92.6337 19.4426 93.231 19.4426C94.475 19.4426 95.4722 19.8428 96.2242 20.6432C96.9748 21.4437 97.3508 22.4975 97.3508 23.8075V25.2376C96.7522 25.0122 96.0789 24.8374 95.3269 24.716C94.575 24.5946 93.8443 24.5346 93.1337 24.5346C92.1151 24.5346 91.2191 24.688 90.4431 24.9948C89.6672 25.3017 89.0579 25.7219 88.6139 26.2555C88.1699 26.7891 87.9473 27.4108 87.9473 28.1231C87.9473 28.8355 88.1286 29.4852 88.4926 30.0748C88.8566 30.6658 89.3445 31.13 89.9592 31.4689V31.4715ZM89.7285 25.87C90.5925 25.3043 91.7284 25.0215 93.1337 25.0215C93.8923 25.0215 94.6243 25.0815 95.3269 25.2029C96.0296 25.3243 96.7042 25.5138 97.3508 25.7726V28.2699C97.3508 28.4153 97.3228 28.5727 97.2655 28.7421C97.2082 28.9115 97.1162 29.0863 96.9868 29.2637C96.5509 29.9427 95.8842 30.4843 94.9883 30.8886C94.091 31.2928 93.1017 31.4942 92.0191 31.4942C91.3564 31.4942 90.7511 31.3448 90.2018 31.046C89.6525 30.7471 89.2205 30.3429 88.9059 29.8333C88.5912 29.3237 88.4339 28.7541 88.4339 28.1245C88.4339 27.1866 88.8659 26.4356 89.7298 25.87H89.7285Z" fill="#F2F2F3"/>
<path d="M92.0193 32.0878C91.246 32.0878 90.534 31.9117 89.9074 31.5648C89.2794 31.2167 88.7728 30.7351 88.4021 30.1334C88.0301 29.5291 87.8408 28.8541 87.8408 28.1257C87.8408 27.3973 88.0728 26.7397 88.5315 26.1901C88.9848 25.6458 89.6141 25.2109 90.4034 24.8987C91.1887 24.5879 92.1073 24.4305 93.1326 24.4305C93.8459 24.4305 94.5898 24.4918 95.3431 24.6132C96.0364 24.7253 96.6737 24.884 97.2417 25.0868V23.8102C97.2417 22.5348 96.8724 21.4956 96.1444 20.7192C95.4178 19.9455 94.4378 19.5533 93.2299 19.5533C92.6486 19.5533 92.0046 19.6853 91.3167 19.9455C90.6247 20.2083 89.9194 20.5911 89.2208 21.0847L89.1354 21.1448L88.7154 20.5831L88.8088 20.5204C89.6194 19.9695 90.4007 19.5493 91.1327 19.2731C91.87 18.9943 92.5753 18.8542 93.2312 18.8542C94.6605 18.8542 95.8164 19.3065 96.6644 20.1963C97.5124 21.0861 97.943 22.3014 97.943 23.8102V30.7684C97.943 30.9018 97.9697 31.0006 98.0243 31.0606C98.0777 31.1193 98.1403 31.146 98.2243 31.146H98.331V31.845H98.2243C98.1177 31.845 98.0417 31.841 97.9883 31.8316C97.9297 31.8223 97.879 31.8063 97.8364 31.785C97.6617 31.7156 97.5124 31.5822 97.4044 31.3914C97.2977 31.206 97.2444 30.9965 97.2444 30.7684V29.9026C96.6804 30.5483 95.9671 31.0673 95.1178 31.4488C94.1712 31.873 93.1286 32.0878 92.0206 32.0878H92.0193ZM90.0114 31.3781C90.606 31.7063 91.282 31.8743 92.0193 31.8743C93.0966 31.8743 94.1099 31.6662 95.0285 31.2527C95.9444 30.8418 96.6977 30.2655 97.2657 29.5385L97.4577 29.2943V30.7684C97.4577 30.9592 97.5017 31.1326 97.5884 31.2847C97.6737 31.4341 97.783 31.5342 97.923 31.5902C97.9537 31.6062 97.9843 31.6142 98.0217 31.6209C98.0457 31.6249 98.0763 31.6275 98.1163 31.6302V31.3514C98.019 31.3314 97.9337 31.282 97.8644 31.2047C97.775 31.1046 97.7284 30.9579 97.7284 30.7698V23.8115C97.7284 22.3601 97.3177 21.1941 96.5097 20.3457C95.7031 19.4986 94.5992 19.069 93.2312 19.069C92.6019 19.069 91.922 19.2051 91.2087 19.4746C90.5207 19.7347 89.7861 20.1256 89.0221 20.6365L89.1834 20.8513C89.8701 20.3764 90.562 20.0042 91.242 19.7467C91.954 19.4759 92.6233 19.3398 93.2312 19.3398C94.5005 19.3398 95.5338 19.7547 96.3018 20.5738C97.0684 21.3902 97.4577 22.4801 97.4577 23.8115V25.3976L97.3124 25.3429C96.7231 25.1202 96.0484 24.9467 95.3098 24.828C94.5672 24.708 93.8352 24.6479 93.1339 24.6479C92.1353 24.6479 91.2433 24.8 90.4834 25.1015C89.7274 25.4016 89.1274 25.8152 88.6968 26.3315C88.2701 26.8424 88.0555 27.4467 88.0555 28.1297C88.0555 28.8127 88.2341 29.4557 88.5848 30.0254C88.9354 30.5963 89.4154 31.0526 90.0114 31.3821V31.3781ZM92.0193 31.6035C91.342 31.6035 90.7127 31.4488 90.1514 31.142C89.5874 30.8351 89.1381 30.4136 88.8141 29.892C88.4901 29.3677 88.3261 28.7741 88.3261 28.1257C88.3261 27.1546 88.7794 26.3648 89.6714 25.7818C90.55 25.2069 91.714 24.9161 93.1339 24.9161C93.8952 24.9161 94.6405 24.9774 95.3458 25.1002C96.0524 25.2216 96.7391 25.415 97.3897 25.6751L97.4564 25.7018V28.2711C97.4564 28.4259 97.4257 28.5966 97.367 28.7767C97.307 28.9568 97.2084 29.1423 97.0737 29.3277C96.6311 30.016 95.9431 30.5763 95.0312 30.9872C94.1245 31.3954 93.1112 31.6035 92.0193 31.6035ZM93.1339 25.1295C91.7566 25.1295 90.63 25.4097 89.7874 25.9606C88.9474 26.5102 88.5395 27.2186 88.5395 28.1257C88.5395 28.734 88.6928 29.289 88.9954 29.7786C89.2981 30.2695 89.7207 30.6644 90.2514 30.9539C90.782 31.2433 91.3767 31.3888 92.018 31.3888C93.0806 31.3888 94.0632 31.1873 94.9432 30.7924C95.8151 30.3989 96.4724 29.8653 96.8964 29.2076C97.0217 29.0355 97.1111 28.8701 97.1631 28.71C97.2151 28.5513 97.2417 28.4032 97.2417 28.2711V25.8459C96.6244 25.6044 95.9751 25.4243 95.3071 25.3083C94.6138 25.1882 93.8819 25.1282 93.1326 25.1282L93.1339 25.1295Z" fill="#F2F2F3"/>
<path d="M106.511 19.2022C105.687 19.2996 104.907 19.6344 104.172 20.208C103.438 20.7817 102.851 21.514 102.415 22.4025V19.1528H101.93V31.7367H102.415V23.7832C102.755 22.5386 103.361 21.5487 104.232 20.8123C105.104 20.0773 106.131 19.6851 107.31 19.6357V19.1501C107.212 19.1501 107.095 19.1541 106.958 19.1622C106.82 19.1702 106.671 19.1822 106.51 19.1982L106.511 19.2022Z" fill="#F2F2F3"/>
<path d="M102.522 31.8448H101.823V19.0461H102.522V21.9717C102.938 21.2406 103.47 20.6203 104.106 20.124C104.854 19.5411 105.658 19.1942 106.498 19.0955H106.5C106.663 19.0795 106.814 19.0675 106.952 19.0581C107.092 19.0501 107.212 19.0461 107.311 19.0461H107.418V19.7412L107.315 19.7452C106.166 19.7919 105.151 20.1801 104.302 20.8964C103.454 21.6115 102.855 22.588 102.522 23.7993V31.8448ZM102.038 31.63H102.309L102.313 23.7566C102.657 22.4959 103.279 21.4794 104.164 20.7324C105.026 20.0066 106.048 19.6038 107.204 19.5357V19.2609C107.134 19.2623 107.054 19.2663 106.967 19.2716C106.831 19.2796 106.683 19.2916 106.524 19.3063C105.724 19.401 104.956 19.7318 104.239 20.2908C103.52 20.8524 102.939 21.5781 102.513 22.4479L102.31 22.8615V19.2583H102.039V31.6287L102.038 31.63Z" fill="#F2F2F3"/>
<path d="M114.58 30.8899C114.564 30.9059 114.361 31.0113 113.974 31.2047C113.586 31.3981 113.11 31.4955 112.545 31.4955C112.125 31.4955 111.745 31.3688 111.406 31.1153C111.068 30.8618 110.881 30.499 110.849 30.0254V19.6387H113.878V19.1531H110.849V14.7642H110.365V19.1531H108.548V19.6387H110.365V30.0214C110.365 30.4136 110.465 30.7565 110.668 31.0499C110.869 31.3434 111.136 31.5729 111.468 31.7356C111.798 31.8984 112.158 31.9798 112.546 31.9798C112.998 31.9798 113.394 31.9224 113.734 31.8103C114.074 31.6969 114.445 31.5195 114.849 31.2767L114.582 30.8885L114.58 30.8899Z" fill="#F2F2F3"/>
<path d="M112.544 32.0877C112.142 32.0877 111.764 32.001 111.418 31.8316C111.072 31.6595 110.788 31.418 110.577 31.1099C110.364 30.7991 110.256 30.4335 110.256 30.02V19.744H108.438V19.045H110.256V14.656H110.954V19.045H113.984V19.744H110.954V30.024C110.985 30.4615 111.153 30.7924 111.468 31.0285C111.786 31.266 112.149 31.3874 112.542 31.3874C113.089 31.3874 113.554 31.2926 113.924 31.1072C114.422 30.8577 114.5 30.8124 114.512 30.8044L114.602 30.7163L114.665 30.8284L114.996 31.31L114.898 31.3687C114.489 31.6141 114.108 31.7969 113.762 31.9116C113.413 32.0277 113.002 32.0864 112.541 32.0864L112.544 32.0877ZM108.652 19.5319H110.469V30.0213C110.469 30.3895 110.565 30.715 110.753 30.9898C110.942 31.266 111.198 31.4847 111.512 31.6395C111.826 31.7942 112.173 31.8729 112.542 31.8729C112.981 31.8729 113.369 31.8182 113.696 31.7089C113.998 31.6075 114.333 31.4514 114.692 31.2433L114.546 31.0325C114.464 31.0779 114.31 31.1566 114.02 31.3006C113.62 31.5021 113.122 31.6035 112.542 31.6035C112.101 31.6035 111.697 31.4687 111.34 31.2019C110.976 30.9298 110.774 30.5376 110.74 30.0333V19.5319H113.769V19.2611H110.74V14.8721H110.469V19.2611H108.652V19.5319Z" fill="#F2F2F3"/>
<path d="M76.4851 45.4786C77.2437 45.1397 77.8464 44.6061 78.2903 43.8777C78.7343 43.1507 78.957 42.3503 78.957 41.4778C78.957 40.7508 78.7997 40.0517 78.485 39.3807C78.1704 38.7097 77.717 38.1601 77.1277 37.7319C76.5371 37.3036 75.8385 37.0889 75.0318 37.0889H67.4229V54.3045H75.3958C76.1864 54.3045 76.9064 54.099 77.553 53.6868C78.1997 53.2746 78.717 52.729 79.1036 52.05C79.4916 51.3709 79.6849 50.6359 79.6849 49.8435C79.6849 48.8576 79.3983 47.9558 78.825 47.1394C78.2517 46.323 77.4717 45.7694 76.4864 45.4786H76.4851ZM67.9068 37.5745H75.0318C75.7105 37.5745 76.3078 37.7559 76.8251 38.1201C77.3424 38.4843 77.7464 38.9605 78.037 39.5501C78.3277 40.1411 78.473 40.7828 78.473 41.4778C78.473 42.1088 78.3197 42.7225 78.013 43.3201C77.7064 43.9177 77.2864 44.4113 76.7531 44.7995C76.2198 45.1877 75.5985 45.3812 74.8878 45.3812H67.9082V37.5731L67.9068 37.5745ZM78.6903 51.7471C78.3503 52.3528 77.8944 52.8504 77.3211 53.2386C76.7478 53.6268 76.1051 53.8202 75.3945 53.8202H67.9068V45.8668H75.5638C76.2584 45.8668 76.8797 46.0575 77.4304 46.4364C77.9797 46.8166 78.4117 47.3048 78.7263 47.9038C79.041 48.5015 79.1983 49.1485 79.1983 49.8435C79.1983 50.5385 79.029 51.1402 78.689 51.7471H78.6903Z" fill="#F2F2F3"/>
<path d="M75.396 54.4112H67.3164V36.9822H75.0321C75.8587 36.9822 76.5853 37.205 77.1906 37.6452C77.7919 38.0827 78.2599 38.651 78.5826 39.3354C78.9025 40.0171 79.0652 40.7375 79.0652 41.4778C79.0652 42.3663 78.8359 43.1921 78.3826 43.9338C77.9773 44.5981 77.4359 45.1091 76.772 45.4586C77.6573 45.7734 78.3772 46.3164 78.9119 47.0781C79.4958 47.9092 79.7918 48.839 79.7918 49.8422C79.7918 50.6493 79.5918 51.4097 79.1959 52.102C78.8025 52.7917 78.2679 53.356 77.6093 53.7762C76.9493 54.1978 76.204 54.4112 75.3947 54.4112H75.396ZM67.5311 54.1964H75.396C76.164 54.1964 76.8693 53.9937 77.4946 53.5948C78.1239 53.1933 78.6345 52.6556 79.0105 51.9953C79.3865 51.335 79.5785 50.6106 79.5785 49.8422C79.5785 48.883 79.2959 47.9946 78.7372 47.2008C78.1799 46.4084 77.4133 45.8628 76.456 45.5813L76.1773 45.4986L76.4426 45.3799C77.1786 45.0517 77.7693 44.5274 78.1999 43.8217C78.6319 43.1147 78.8505 42.3263 78.8505 41.4778C78.8505 40.7695 78.6945 40.0785 78.3879 39.4261C78.0812 38.7751 77.6359 38.2348 77.0653 37.8186C76.4973 37.4051 75.812 37.197 75.0321 37.197H67.5297V54.1978L67.5311 54.1964ZM75.396 53.9256H67.8004V45.7587H75.5654C76.2787 45.7587 76.9266 45.9562 77.4919 46.347C78.0532 46.7352 78.5012 47.2422 78.8225 47.8532C79.1439 48.4641 79.3079 49.1338 79.3079 49.8422C79.3079 50.5506 79.1319 51.1789 78.7852 51.7979C78.4399 52.4155 77.9679 52.9305 77.3826 53.3253C76.7933 53.7242 76.1253 53.9256 75.396 53.9256ZM68.015 53.7109H75.396C76.0813 53.7109 76.7093 53.5214 77.2626 53.1479C77.8186 52.7717 78.2679 52.2821 78.5986 51.6925C78.9265 51.1055 79.0945 50.4825 79.0945 49.8409C79.0945 49.1672 78.9399 48.5308 78.6345 47.9519C78.3292 47.3716 77.9039 46.8913 77.3719 46.5231C76.8426 46.1576 76.236 45.9722 75.5667 45.9722H68.0164V53.7109H68.015ZM74.8867 45.4866H67.8004V37.4651H75.0321C75.7294 37.4651 76.3533 37.6545 76.8866 38.0294C77.4159 38.4029 77.8359 38.8965 78.1332 39.5008C78.4292 40.1038 78.5799 40.7681 78.5799 41.4752C78.5799 42.1195 78.4212 42.7558 78.1079 43.3668C77.7946 43.9778 77.3586 44.4874 76.816 44.8836C76.2667 45.2838 75.6187 45.4866 74.8867 45.4866ZM68.015 45.2718H74.8867C75.572 45.2718 76.1787 45.0824 76.6893 44.7102C77.2066 44.334 77.6186 43.8497 77.9172 43.2694C78.2146 42.6891 78.3652 42.0862 78.3652 41.4752C78.3652 40.8002 78.2226 40.1678 77.9399 39.5942C77.6586 39.0232 77.2626 38.555 76.7626 38.2041C76.2653 37.8546 75.6827 37.6785 75.0307 37.6785H68.0137V45.2718H68.015Z" fill="#F2F2F3"/>
<path d="M83.6123 41.7207H83.127V54.3046H83.6123V41.7207Z" fill="#F2F2F3"/>
<path d="M83.7191 54.4112H83.0205V41.6125H83.7191V54.4112ZM83.2338 54.1964H83.5045V41.826H83.2338V54.1964Z" fill="#F2F2F3"/>
<path d="M83.6123 36.6047H83.127V38.4724H83.6123V36.6047Z" fill="#F2F2F3"/>
<path d="M83.7191 38.5791H83.0205V36.498H83.7191V38.5791ZM83.2338 38.3644H83.5045V36.7115H83.2338V38.3644Z" fill="#F2F2F3"/>
<path d="M97.9324 44.6542C97.3351 43.7977 96.6151 43.0627 95.7751 42.4477C94.9352 41.834 93.9419 41.5259 92.7939 41.5259C91.938 41.5259 91.15 41.7046 90.4314 42.0595C89.7128 42.4157 89.0941 42.8999 88.5768 43.5136C88.0595 44.1286 87.6595 44.8276 87.3769 45.6107C87.0942 46.3951 86.9529 47.2075 86.9529 48.0479C86.9529 48.8884 87.1022 49.6448 87.4009 50.4118C87.6995 51.1802 88.1195 51.8753 88.6608 52.4969C89.2021 53.1199 89.8434 53.6162 90.5874 53.9883C91.33 54.3605 92.138 54.546 93.0113 54.546C93.9646 54.546 94.8898 54.2792 95.7858 53.7456C96.6831 53.2119 97.3977 52.5249 97.931 51.6845V54.8368C97.931 55.7906 97.7004 56.595 97.2404 57.2487C96.7804 57.9037 96.1658 58.396 95.3992 58.7281C94.6312 59.059 93.7872 59.2257 92.8673 59.2257C91.85 59.2257 90.8927 59.015 89.9954 58.5947C89.0981 58.1745 88.3915 57.4955 87.8742 56.5577L87.4142 56.7031C87.8822 57.5916 88.5368 58.3159 89.3768 58.8735C90.2167 59.4312 91.3793 59.71 92.8659 59.71C93.8192 59.71 94.7192 59.5366 95.5685 59.1884C96.4164 58.8402 97.1031 58.3039 97.6284 57.5755C98.1537 56.8485 98.4163 55.9347 98.4163 54.8355V41.718H97.931V44.6515L97.9324 44.6542ZM97.9324 50.2064C97.9004 50.6586 97.7391 51.1122 97.4484 51.5644C97.1577 52.0167 96.7778 52.4329 96.3098 52.8131C95.8418 53.1933 95.3245 53.4961 94.7592 53.7229C94.1939 53.9497 93.6112 54.0617 93.0139 54.0617C92.238 54.0617 91.5153 53.9003 90.8447 53.5761C90.1741 53.2533 89.5808 52.8091 89.0635 52.2421C88.5461 51.6765 88.1462 51.0335 87.8635 50.3144C87.5809 49.5954 87.4395 48.839 87.4395 48.0479C87.4395 47.3369 87.5609 46.6259 87.8035 45.9148C88.0462 45.2038 88.3928 44.5528 88.8448 43.9631C89.2968 43.3735 89.8581 42.8999 90.5287 42.5451C91.1994 42.1902 91.954 42.0115 92.7939 42.0115C93.5206 42.0115 94.2232 42.1689 94.9018 42.4837C95.5805 42.7985 96.1898 43.2321 96.7311 43.7804C97.2724 44.33 97.6724 44.961 97.931 45.672V50.2064H97.9324Z" fill="#F2F2F3"/>
<path d="M92.8675 59.8193C91.3676 59.8193 90.1729 59.5325 89.3183 58.9642C88.4677 58.3986 87.7944 57.6555 87.3197 56.7551L87.2597 56.6417L87.9264 56.4322L87.969 56.5083C88.473 57.4207 89.169 58.0904 90.041 58.5C90.9182 58.9122 91.8689 59.1203 92.8675 59.1203C93.7688 59.1203 94.6074 58.9562 95.358 58.632C96.1033 58.3105 96.7073 57.8249 97.154 57.1899C97.5993 56.5563 97.8246 55.7652 97.8246 54.8394V52.0379C97.3086 52.7596 96.642 53.364 95.842 53.8415C94.9327 54.3818 93.9808 54.6566 93.0128 54.6566C92.1275 54.6566 91.2969 54.4645 90.5423 54.0883C89.789 53.7121 89.1303 53.2012 88.5824 52.5715C88.0357 51.9446 87.6051 51.2322 87.3024 50.4558C86.9998 49.678 86.8464 48.8696 86.8464 48.0519C86.8464 47.2341 86.9918 46.3723 87.2771 45.5786C87.5624 44.7862 87.973 44.0698 88.4957 43.4495C89.0197 42.8265 89.6556 42.3276 90.3836 41.9674C91.1142 41.6059 91.9249 41.4231 92.7942 41.4231C93.9594 41.4231 94.9834 41.7393 95.838 42.3649C96.594 42.9185 97.2619 43.5775 97.8246 44.3273V41.6165H98.5232V54.8407C98.5232 55.9573 98.2512 56.9005 97.7153 57.6435C97.182 58.3839 96.4727 58.9389 95.6087 59.2924C94.7514 59.6432 93.8288 59.822 92.8662 59.822L92.8675 59.8193ZM87.5717 56.7684C88.025 57.5862 88.653 58.2652 89.4383 58.7868C90.2569 59.3297 91.4102 59.6059 92.8688 59.6059C93.8034 59.6059 94.6994 59.4324 95.53 59.0923C96.3553 58.7534 97.0326 58.2238 97.5433 57.5168C98.0526 56.8111 98.3112 55.9106 98.3112 54.8394V41.8286H98.0406V44.9956L97.8459 44.7168C97.258 43.8737 96.5407 43.1387 95.714 42.5357C94.8967 41.938 93.9154 41.6352 92.7968 41.6352C91.9609 41.6352 91.1822 41.8113 90.4809 42.1568C89.7783 42.5037 89.1663 42.9852 88.6624 43.5856C88.1557 44.1872 87.7584 44.8809 87.4811 45.6506C87.2038 46.4204 87.0624 47.2288 87.0624 48.0505C87.0624 48.8723 87.2104 49.6234 87.5037 50.3757C87.7971 51.1295 88.2144 51.8205 88.745 52.4288C89.2743 53.0371 89.9116 53.5307 90.6383 53.8949C91.3636 54.2578 92.1622 54.4419 93.0142 54.4419C93.9434 54.4419 94.8581 54.1777 95.734 53.6561C96.6126 53.1332 97.3219 52.4528 97.8433 51.6297L98.0406 51.3189V54.8394C98.0406 55.8106 97.8019 56.643 97.33 57.314C96.8606 57.9824 96.226 58.492 95.4434 58.8295C94.6661 59.1643 93.7994 59.3351 92.8688 59.3351C91.8395 59.3351 90.8582 59.1203 89.9516 58.6947C89.0623 58.2785 88.3477 57.6035 87.8264 56.6897L87.5731 56.7697L87.5717 56.7684ZM93.0142 54.1697C92.2249 54.1697 91.4796 54.003 90.7996 53.6735C90.1196 53.3453 89.509 52.889 88.985 52.3154C88.461 51.7418 88.0504 51.0828 87.7651 50.3544C87.4784 49.626 87.3331 48.8496 87.3331 48.0479C87.3331 47.3288 87.4571 46.5991 87.7024 45.8801C87.9464 45.161 88.3037 44.494 88.761 43.8977C89.2197 43.2987 89.7983 42.8118 90.4796 42.4503C91.1636 42.0874 91.9422 41.9047 92.7955 41.9047C93.5341 41.9047 94.2594 42.0674 94.9487 42.3876C95.6354 42.7064 96.2607 43.1507 96.8086 43.7069C97.3579 44.2659 97.7699 44.9156 98.0326 45.6373L98.0393 45.6733V50.2157C98.0046 50.6852 97.8366 51.1588 97.5379 51.6244C97.242 52.0846 96.8513 52.5128 96.3767 52.8984C95.902 53.2826 95.3714 53.5934 94.7981 53.8242C94.2234 54.055 93.6235 54.171 93.0142 54.171V54.1697ZM92.7955 42.1195C91.9782 42.1195 91.2329 42.2942 90.5796 42.6397C89.925 42.9866 89.3703 43.4548 88.9303 44.0284C88.4877 44.6061 88.1424 45.2531 87.9051 45.9494C87.6677 46.6458 87.5477 47.3515 87.5477 48.0479C87.5477 48.8229 87.6877 49.5727 87.9637 50.2757C88.241 50.9801 88.637 51.6164 89.1423 52.17C89.6476 52.7236 90.2356 53.1639 90.8916 53.4787C91.5435 53.7935 92.2569 53.9536 93.0142 53.9536C93.5955 53.9536 94.1688 53.8415 94.7194 53.6214C95.2727 53.4 95.7847 53.0998 96.2433 52.729C96.7006 52.3581 97.0766 51.9459 97.3593 51.5057C97.6379 51.0721 97.7953 50.6345 97.8273 50.2023V45.6906C97.5753 45.005 97.182 44.3873 96.6593 43.8564C96.1287 43.3187 95.5234 42.8892 94.8607 42.581C94.1994 42.2742 93.5048 42.1181 92.7968 42.1181L92.7955 42.1195Z" fill="#F2F2F3"/>
<path d="M102.803 52.7532H102.318V54.3046H102.803V52.7532Z" fill="#F2F2F3"/>
<path d="M102.91 54.4113H102.211V52.645H102.91V54.4113ZM102.425 54.1965H102.695V52.8585H102.425V54.1965Z" fill="#F2F2F3"/>
<path d="M51.9069 40.8255L51.8149 41.031C51.4523 41.846 50.8776 42.5824 50.1057 43.2188C49.323 43.8631 48.4258 44.3767 47.4351 44.7449C46.4485 45.1131 45.3886 45.2985 44.2819 45.2985C42.534 45.2985 40.9274 44.8303 39.5048 43.9058C38.0742 42.9786 36.917 41.6926 36.065 40.0851C35.2104 38.4763 34.7771 36.5993 34.7771 34.5049C34.7771 32.4105 35.1984 30.4628 36.0317 28.8526C36.861 27.2478 38.0156 25.9871 39.4635 25.108C40.9128 24.2276 42.534 23.782 44.2833 23.782C45.8459 23.782 47.2911 24.1435 48.5764 24.8546C49.859 25.5656 50.9056 26.6021 51.6856 27.9335L51.7869 28.1069L61.5998 25.1094L61.4652 24.8399C60.7452 23.3991 59.8266 22.0784 58.7333 20.9125C57.6427 19.7492 56.3481 18.7087 54.8868 17.8216C53.4229 16.9331 51.7936 16.2581 50.043 15.8152C48.2964 15.3723 46.3819 15.1482 44.3526 15.1482C42.3234 15.1482 40.4021 15.3696 38.6449 15.8085C36.8836 16.2474 35.237 16.9144 33.7504 17.7922C33.4371 17.9763 33.1318 18.1684 32.8331 18.3672H26.2948C26.5068 18.0657 26.7414 17.7869 26.9974 17.5361C27.3614 17.1786 27.7907 16.8197 28.272 16.4715C28.7507 16.1247 29.3186 15.7712 29.9573 15.419C30.5959 15.0681 31.3279 14.6759 32.1332 14.2531L32.1385 14.2504C32.7118 13.9329 33.3145 13.5554 33.9304 13.1285C34.5504 12.6989 35.133 12.2013 35.6623 11.649C36.1983 11.0901 36.645 10.4337 36.993 9.70003C37.3449 8.95564 37.5236 8.09253 37.5236 7.1347C37.5236 5.75131 37.1756 4.52401 36.489 3.48614C35.8037 2.45093 34.8051 1.63184 33.5211 1.0502C32.2465 0.472572 30.6932 0.18042 28.9013 0.18042C27.72 0.18042 26.5934 0.307152 25.5535 0.557949C24.5175 0.807412 23.5602 1.12758 22.7069 1.50778C21.851 1.89064 21.103 2.30419 20.4844 2.73908C19.8671 3.17264 19.3644 3.58219 18.9911 3.95571L18.8231 4.1238L22.487 8.34999L22.6776 8.1112C22.9776 7.73501 23.3216 7.37215 23.7002 7.03198C24.0762 6.69447 24.4895 6.38097 24.9308 6.10349C25.3628 5.83135 25.8388 5.61924 26.3454 5.46983C26.8508 5.32175 27.4094 5.24705 28.0067 5.24705C28.74 5.24705 29.356 5.37245 29.836 5.62058C30.3119 5.86604 30.6852 6.19554 30.9452 6.59708C31.2026 6.99462 31.3332 7.44152 31.3332 7.92444C31.3332 8.37134 31.2092 8.75287 30.9559 9.09171C30.6892 9.4479 30.2839 9.80675 29.7546 10.1549C29.204 10.5178 28.5227 10.918 27.7307 11.3462C26.9148 11.7851 25.9721 12.296 24.9268 12.863H24.9242C23.6936 13.554 22.663 14.2744 21.8603 15.0068C21.607 15.2376 21.371 15.4737 21.1497 15.7165H14.97V3.59953H4.91577V15.7178H0V23.5686H4.91577V44.5701C4.91577 45.6694 5.0291 46.6792 5.25309 47.5717C5.47841 48.4721 5.8224 49.2792 6.27571 49.9703C7.17833 51.3496 8.40361 52.3675 9.91821 52.9972C11.4155 53.6188 13.0781 53.9336 14.8606 53.9336C16.1966 53.9336 17.5445 53.8002 18.8645 53.5361C20.1791 53.2733 21.427 52.9211 22.5723 52.4916C23.7122 52.0633 24.6975 51.6791 25.5015 51.3483L25.7055 51.2643L23.6549 43.2081L23.3829 43.3215C22.8229 43.5563 22.0616 43.8417 21.1177 44.1712C20.2004 44.4927 19.2458 44.6555 18.2805 44.6555C17.3152 44.6555 16.5646 44.3914 15.9513 43.8711C15.346 43.3602 15.018 42.501 14.974 41.3178V23.5659H18.6871V23.5846H27.6081C27.3427 23.9874 27.0921 24.4023 26.8588 24.8292C26.0561 26.286 25.4455 27.8401 25.0442 29.4449C24.6429 31.0484 24.4402 32.7507 24.4402 34.5022C24.4402 37.0609 24.9135 39.5355 25.8481 41.8594C26.7828 44.1819 28.1294 46.2843 29.8533 48.108C30.7172 49.0218 31.6839 49.8462 32.7265 50.5572C33.7691 51.2683 34.917 51.8873 36.1383 52.3969C37.3609 52.9064 38.6782 53.2946 40.0541 53.5494C41.4287 53.8042 42.9007 53.9323 44.4286 53.9323C47.1991 53.9323 49.7337 53.5068 51.9629 52.669C54.1908 51.8312 56.1587 50.6506 57.8133 49.1632C59.4692 47.6757 60.7479 45.9682 61.6145 44.0912L61.7371 43.8257L51.9096 40.8228L51.9069 40.8255ZM14.462 23.0603V41.3351C14.5113 42.6705 14.9006 43.655 15.6206 44.2633C16.3286 44.8636 17.2232 45.1678 18.2792 45.1678C19.3351 45.1678 20.3124 44.9957 21.2843 44.6542C22.0936 44.3714 22.7709 44.1206 23.3056 43.9058L25.1028 50.9628C24.3429 51.2723 23.4336 51.6258 22.3936 52.0167C21.2737 52.4369 20.0524 52.781 18.7645 53.0385C17.4765 53.296 16.1633 53.4254 14.8606 53.4254C13.1461 53.4254 11.5488 53.1226 10.1142 52.5276C8.6956 51.9379 7.54765 50.9841 6.70236 49.6914C5.85573 48.4001 5.42642 46.6779 5.42642 44.5715V23.0603H0.50931V16.2274H5.42508V4.10913H14.4633V16.2274H20.7177C20.4204 16.5996 20.1617 16.9838 19.9431 17.3773C19.4778 18.2124 19.1471 19.1263 18.9618 20.0948C18.7911 20.9779 18.6991 21.9784 18.6871 23.0683C17.3565 23.0683 14.4633 23.0603 14.4633 23.0603H14.462ZM19.1938 23.079C19.2058 22.0157 19.2951 21.0446 19.4604 20.1895C19.6351 19.2757 19.9471 18.4125 20.3871 17.6241C20.8257 16.8371 21.4363 16.0833 22.2043 15.383C22.9776 14.6773 23.9762 13.9796 25.1722 13.3099C26.2148 12.7429 27.1574 12.2333 27.972 11.7944C28.7773 11.3596 29.472 10.9513 30.0346 10.5805C30.6132 10.199 31.0599 9.80141 31.3625 9.3972C31.6799 8.97298 31.8412 8.47672 31.8412 7.92444C31.8412 7.34147 31.6839 6.80252 31.3719 6.31961C31.0626 5.84202 30.6239 5.45382 30.0679 5.16701C29.5146 4.88153 28.82 4.73745 28.0054 4.73745C27.3601 4.73745 26.7534 4.81883 26.2015 4.98158C25.6495 5.143 25.1295 5.37645 24.6589 5.6726C24.1935 5.96609 23.7562 6.29559 23.3589 6.65311C23.0389 6.94126 22.7429 7.24409 22.4736 7.55892L19.5204 4.15181C19.8511 3.84365 20.2724 3.51015 20.7764 3.15663C21.3683 2.74041 22.087 2.34288 22.9136 1.97335C23.7376 1.60516 24.6669 1.29567 25.6721 1.05421C26.6734 0.812748 27.76 0.691352 28.9013 0.691352C30.6199 0.691352 32.1038 0.968829 33.3118 1.51578C34.5077 2.05739 35.433 2.81645 36.065 3.77028C36.6956 4.72144 37.0156 5.85403 37.0156 7.13736C37.0156 8.01782 36.853 8.80756 36.5343 9.48391C36.2103 10.1683 35.7943 10.7779 35.297 11.2982C34.7917 11.8251 34.2344 12.3 33.6424 12.7109C33.0398 13.1271 32.4532 13.4953 31.8959 13.8048C31.0892 14.229 30.3559 14.6226 29.7146 14.9748C29.056 15.3363 28.472 15.7018 27.976 16.0607C27.4734 16.4235 27.0254 16.7984 26.6428 17.1746C26.2521 17.5588 25.9041 18.003 25.6108 18.4926L25.3802 18.8781H32.1065C31.2692 19.4904 30.4959 20.1575 29.792 20.8752C29.1227 21.5582 28.5067 22.2986 27.9494 23.087L19.1964 23.0816L19.1938 23.079ZM57.4693 48.787C55.8614 50.2331 53.9482 51.379 51.7789 52.1954C49.607 53.0118 47.1325 53.4267 44.4233 53.4267C41.4327 53.4267 38.7089 52.9238 36.329 51.9299C33.9518 50.9388 31.8959 49.5354 30.2173 47.7611C28.5373 45.9842 27.2241 43.9365 26.3148 41.6726C25.4055 39.4101 24.9442 36.9982 24.9442 34.5062C24.9442 31.0871 25.7361 27.9148 27.2987 25.0787C28.86 22.2425 31.1172 19.9387 34.0091 18.2311C36.901 16.5236 40.3808 15.6578 44.3526 15.6578C48.3244 15.6578 51.7776 16.5329 54.6228 18.2578C57.3733 19.928 59.4746 22.1278 60.8732 24.7999L52.0216 27.5039C51.2056 26.1766 50.131 25.136 48.8231 24.4103C47.4605 23.6566 45.9325 23.2737 44.2833 23.2737C42.4394 23.2737 40.7288 23.7446 39.1995 24.6745C37.6689 25.6043 36.4516 26.9316 35.5784 28.6218C34.7091 30.3054 34.2677 32.2864 34.2677 34.5076C34.2677 35.5948 34.3811 36.634 34.6037 37.5985C34.8277 38.5657 35.1677 39.4835 35.6157 40.3266C36.509 42.0115 37.7249 43.3602 39.2289 44.3353C40.7354 45.3132 42.4354 45.8094 44.2833 45.8094C45.4499 45.8094 46.5698 45.612 47.6138 45.2238C48.6564 44.8356 49.603 44.294 50.4297 43.6136C51.199 42.98 51.7883 42.2503 52.1856 41.4445L61.0252 44.1459C60.1919 45.8575 58.9973 47.4183 57.4707 48.7883L57.4693 48.787Z" fill="#F2F2F3"/>
</g>
<defs>
<clipPath id="clip0_458_13762">
<rect width="115" height="59.639" fill="white" transform="translate(0 0.18042)"/>
</clipPath>
</defs>
</svg>
